name rise49.8558peak67.6521fall70.3087.mot
datacolumns 19
datarows 14
range 6.78663700000000 6.80830800000000
endheader
time	ground_force1_vx	ground_force1_vy	ground_force1_vz	ground_force1_px	ground_force1_py	ground_force1_pz	ground_force2_vx	ground_force2_vy	ground_force2_vz	ground_force2_px	ground_force2_py	ground_force2_pz	ground_torque1_x	ground_torque1_y	ground_torque1_z	ground_torque2_x	ground_torque2_y	ground_torque2_z	
6.78663700000000	-3.80006300000000	42.97143500000000	-6.75155000000000	0.34943900000000	0.00000000000000	0.10798300000000	-56.87213300000000	782.17317800000001	-60.55854200000000	0.14799700000000	0.00000000000000	-0.08756300000000	0.00000000000000	-5.36467700000000	0.00000000000000	0.00000000000000	-25.35975400000000	0.00000000000000	
6.78831200000000	-4.05580300000000	50.49647800000000	-7.59433200000000	0.35461900000000	0.00000000000000	0.10872600000000	-57.33166200000000	779.92557099999999	-60.28623500000000	0.14696500000000	0.00000000000000	-0.08750700000000	0.00000000000000	-6.11294300000000	0.00000000000000	0.00000000000000	-25.23962900000000	0.00000000000000	
6.78997500000000	-4.20573400000000	58.14795400000000	-8.35928400000000	0.35938700000000	0.00000000000000	0.10940000000000	-57.79293800000000	777.56213600000001	-59.98808800000000	0.14593900000000	0.00000000000000	-0.08744700000000	0.00000000000000	-6.81710700000000	0.00000000000000	0.00000000000000	-25.11601400000000	0.00000000000000	
6.79164600000000	-4.23767500000000	65.82883699999999	-9.02782200000000	0.36381000000000	0.00000000000000	0.11001500000000	-58.25573000000000	775.08205499999997	-59.66398800000000	0.14491800000000	0.00000000000000	-0.08738300000000	0.00000000000000	-7.46174000000000	0.00000000000000	0.00000000000000	-24.98900800000000	0.00000000000000	
6.79330800000000	-4.14439500000000	73.46451800000000	-9.58728600000000	0.36794000000000	0.00000000000000	0.11058100000000	-58.71977400000000	772.48451499999999	-59.31384800000000	0.14390500000000	0.00000000000000	-0.08731400000000	0.00000000000000	-8.03585000000000	0.00000000000000	0.00000000000000	-24.85870700000000	0.00000000000000	
6.79497100000000	-3.92348600000000	81.00521300000000	-10.03105000000000	0.37182100000000	0.00000000000000	0.11110600000000	-59.18477600000000	769.76870199999996	-58.93761700000000	0.14290100000000	0.00000000000000	-0.08724000000000	0.00000000000000	-8.53308200000000	0.00000000000000	0.00000000000000	-24.72520400000000	0.00000000000000	
6.79665200000000	-3.57687100000000	88.42594000000000	-10.35810700000000	0.37548600000000	0.00000000000000	0.11159400000000	-59.65041100000000	766.93380100000002	-58.53527500000000	0.14190700000000	0.00000000000000	-0.08716200000000	0.00000000000000	-8.95149700000000	0.00000000000000	0.00000000000000	-24.58858800000000	0.00000000000000	
6.79830900000000	-3.11004100000000	95.72445100000000	-10.57228400000000	0.37896200000000	0.00000000000000	0.11205100000000	-60.11632000000000	763.97899099999995	-58.10683100000000	0.14092500000000	0.00000000000000	-0.08707800000000	0.00000000000000	-9.29304100000000	0.00000000000000	0.00000000000000	-24.44894800000000	0.00000000000000	
6.79997100000000	-2.53114600000000	102.91764700000000	-10.68118000000000	0.38227200000000	0.00000000000000	0.11248100000000	-60.58210900000000	760.90344500000003	-57.65233300000000	0.13995500000000	0.00000000000000	-0.08698900000000	0.00000000000000	-9.56276900000000	0.00000000000000	0.00000000000000	-24.30636500000000	0.00000000000000	
6.80164500000000	-1.85002000000000	110.03705100000001	-10.69499600000000	0.38543400000000	0.00000000000000	0.11288700000000	-61.04734900000000	757.70632400000000	-57.17185800000000	0.13899900000000	0.00000000000000	-0.08689500000000	0.00000000000000	-9.76795300000000	0.00000000000000	0.00000000000000	-24.16091800000000	0.00000000000000	
6.80331000000000	-1.07725000000000	117.12386400000000	-10.62534700000000	0.38846400000000	0.00000000000000	0.11327200000000	-61.51157400000000	754.38678300000004	-56.66552000000000	0.13805900000000	0.00000000000000	-0.08679500000000	0.00000000000000	-9.91716300000000	0.00000000000000	0.00000000000000	-24.01267900000000	0.00000000000000	
6.80497300000000	-0.22334900000000	124.22408000000000	-10.48417200000000	0.39137500000000	0.00000000000000	0.11363800000000	-61.97428500000000	750.94395999999995	-56.13346900000000	0.13713500000000	0.00000000000000	-0.08668900000000	0.00000000000000	-10.01938900000000	0.00000000000000	0.00000000000000	-23.86171700000000	0.00000000000000	
6.80664000000000	0.70192100000000	131.38405200000000	-10.28280500000000	0.39417600000000	0.00000000000000	0.11398700000000	-62.43493900000000	747.37698300000000	-55.57588900000000	0.13623000000000	0.00000000000000	-0.08657700000000	0.00000000000000	-10.08329200000000	0.00000000000000	0.00000000000000	-23.70809200000000	0.00000000000000	
6.80830800000000	1.69004200000000	138.64676499999999	-10.03125800000000	0.39687900000000	0.00000000000000	0.11432100000000	-62.89295900000000	743.68496600000003	-54.99300300000000	0.13534300000000	0.00000000000000	-0.08646000000000	0.00000000000000	-10.11659400000000	0.00000000000000	0.00000000000000	-23.55186100000000	0.00000000000000	
